<svg width="22" height="30" viewBox="0 0 22 30" fill="none" xmlns="http://www.w3.org/2000/svg">
<path d="M16.1333 5.86667C16.1333 9.10674 13.5067 11.7333 10.2667 11.7333C7.0266 11.7333 4.4 9.10674 4.4 5.86667C4.4 2.6266 7.0266 0 10.2667 0C13.5067 0 16.1333 2.6266 16.1333 5.86667Z" fill="#00B16D"/>
<path fill-rule="evenodd" clip-rule="evenodd" d="M16.8667 29.3333C14.4468 29.3333 13.2369 29.3333 12.4851 28.5816C11.7333 27.8298 11.7333 26.6199 11.7333 24.2C11.7333 21.7801 11.7333 20.5702 12.4851 19.8184C13.2369 19.0667 14.4468 19.0667 16.8667 19.0667C19.2865 19.0667 20.4965 19.0667 21.2482 19.8184C22 20.5702 22 21.7801 22 24.2C22 26.6199 22 27.8298 21.2482 28.5816C20.4965 29.3333 19.2865 29.3333 16.8667 29.3333ZM19.7531 23.0939C20.0872 22.7597 20.0872 22.218 19.7531 21.8839C19.419 21.5498 18.8773 21.5498 18.5432 21.8839L15.7259 24.7012L15.1902 24.1654C14.856 23.8313 14.3143 23.8313 13.9802 24.1654C13.6461 24.4995 13.6461 25.0412 13.9802 25.3753L15.121 26.5161C15.4551 26.8502 15.9968 26.8502 16.3309 26.5161L19.7531 23.0939Z" fill="#00B16D"/>
<path d="M10.2667 16.1333C12.0853 16.1333 13.7935 16.4035 15.2749 16.8775C14.7271 16.8905 14.2148 16.9187 13.7572 16.9802C12.8143 17.107 11.7823 17.41 10.9295 18.2628C10.0767 19.1155 9.77372 20.1476 9.64695 21.0905C9.53303 21.9378 9.53318 22.9731 9.53335 24.0739V24.3261C9.53318 25.4269 9.53303 26.4621 9.64695 27.3095C9.67123 27.49 9.70197 27.6739 9.7418 27.8591C4.31558 27.703 0 25.1395 0 22C0 18.7599 4.59654 16.1333 10.2667 16.1333Z" fill="#00B16D"/>
</svg>
