<svg width="21" height="27" viewBox="0 0 21 27" fill="none" xmlns="http://www.w3.org/2000/svg">
<path d="M18.0793 4.65333V5.64L13.3593 2.90667C11.5726 1.88 9.07927 1.88 7.30594 2.90667L2.58594 5.65333V4.65333C2.58594 1.65333 4.22594 0 7.22594 0H13.4393C16.4393 0 18.0793 1.65333 18.0793 4.65333Z" fill="#00B16D"/>
<path d="M18.12 7.95999L17.9333 7.86665L16.12 6.82665L12.36 4.65332C11.2133 3.98665 9.45333 3.98665 8.30667 4.65332L4.54667 6.81332L2.73333 7.87999L2.49333 7.99999C0.16 9.57332 0 9.86665 0 12.3867V18.4133C0 20.9333 0.16 21.2267 2.54667 22.84L8.30667 26.16C8.88 26.5067 9.6 26.6533 10.3333 26.6533C11.0533 26.6533 11.7867 26.4933 12.36 26.16L18.1733 22.8C20.52 21.2267 20.6667 20.9467 20.6667 18.4133V12.3867C20.6667 9.86665 20.5067 9.57332 18.12 7.95999ZM14.0533 15.3333L13.24 16.3333C13.1067 16.48 13.0133 16.76 13.0267 16.96L13.1067 18.24C13.16 19.0267 12.6 19.4267 11.8667 19.1467L10.68 18.6667C10.4933 18.6 10.1867 18.6 10 18.6667L8.81333 19.1333C8.08 19.4267 7.52 19.0133 7.57333 18.2267L7.65333 16.9467C7.66667 16.7467 7.57333 16.4667 7.44 16.32L6.61333 15.3333C6.10667 14.7333 6.33333 14.0667 7.09333 13.8667L8.33333 13.5467C8.53333 13.4933 8.76 13.3067 8.86667 13.1467L9.56 12.08C9.98667 11.4133 10.6667 11.4133 11.1067 12.08L11.8 13.1467C11.9067 13.32 12.1467 13.4933 12.3333 13.5467L13.5733 13.8667C14.3333 14.0667 14.56 14.7333 14.0533 15.3333Z" fill="#00B16D"/>
</svg>
